<?xml version="1.0" encoding="UTF-8"?>
<svg id="Layer_1" data-name="Layer 1" xmlns="http://www.w3.org/2000/svg" viewBox="0 0 290.54 78.93">
  <defs>
    <style>
      .cls-1 {
        fill: #fff;
        stroke-width: 0px;
      }
    </style>
  </defs>
  <path class="cls-1" d="M87.75,73.63v-9.82h5.46c1.98,0,3.21,1.08,3.21,2.83,0,.75-.22,1.31-.73,1.84.74.57,1.15,1.38,1.15,2.31,0,.82-.34,1.57-.96,2.12-.73.65-1.41.72-2.67.72h-5.46ZM93.21,71.95c1.12,0,1.32-.11,1.56-.3.33-.26.4-.62.4-.87,0-.33,0-1.32-1.95-1.32h-3.77v2.5h3.77ZM93.21,67.77c1.01,0,1.52-.4,1.52-1.2,0-.46-.25-.82-.68-1-.06-.02-.29-.09-.78-.09h-3.83v2.29h3.77Z"/>
  <path class="cls-1" d="M95.68,72.69c-.64.57-1.2.64-2.47.64h-5.17v-9.23h5.17c1.62,0,2.92.79,2.92,2.53,0,.82-.29,1.35-.9,1.88.83.51,1.32,1.29,1.32,2.27,0,.74-.31,1.41-.86,1.9M94.17,65.3c-.16-.06-.45-.11-.89-.11h-4.13v2.88h4.07c.99,0,1.82-.4,1.82-1.5,0-.54-.3-1.04-.86-1.27M93.21,69.15h-4.07v3.09h4.07c1.14,0,1.42-.11,1.74-.37.35-.27.51-.67.51-1.1,0-1.31-1.15-1.62-2.25-1.62"/>
  <path class="cls-1" d="M104.58,73.86c-1.34,0-2.38-.32-3.18-.98-1.11-.93-1.2-1.97-1.2-3.23v-5.85h1.68v5.82c0,.98.05,1.37.36,1.74.59.7,1.72.81,2.33.81,1.21,0,2.02-.3,2.41-.88.18-.27.31-.55.31-1.66v-5.82h1.68v5.82c0,.89-.04,1.75-.5,2.49-.96,1.57-3.05,1.75-3.9,1.75"/>
  <path class="cls-1" d="M108.22,71.96c-.74,1.21-2.31,1.61-3.64,1.61-1.08,0-2.14-.21-2.99-.91-1-.84-1.09-1.75-1.09-3v-5.55h1.09v5.52c0,.99.05,1.47.43,1.93.6.72,1.67.92,2.56.92.94,0,2.1-.17,2.66-1.01.22-.33.36-.67.36-1.83v-5.52h1.09v5.52c0,.79-.02,1.64-.46,2.34"/>
  <rect class="cls-1" x="113.35" y="63.79" width="1.68" height="9.84"/>
  <rect class="cls-1" x="113.64" y="64.09" width="1.09" height="9.24"/>
  <polygon class="cls-1" points="119.34 73.63 119.34 63.8 121.03 63.8 121.03 71.95 126.85 71.95 126.85 73.63 119.34 73.63"/>
  <polygon class="cls-1" points="119.64 73.33 119.64 64.1 120.73 64.1 120.73 72.24 126.55 72.24 126.55 73.33 119.64 73.33"/>
  <path class="cls-1" d="M129.52,73.63v-9.82h4.84c3.45,0,4.57,3.33,4.57,4.94,0,2.36-1.79,4.88-4.45,4.88h-4.97ZM134.49,71.95c1.63,0,2.77-1.71,2.77-3.24,0-1.84-1.24-3.22-2.89-3.22h-3.16v6.46h3.29Z"/>
  <path class="cls-1" d="M134.49,73.33h-4.67v-9.23h4.55c3.38,0,4.28,3.3,4.28,4.65,0,2.29-1.74,4.58-4.15,4.58M134.36,65.19h-3.46v7.06h3.58c1.82,0,3.07-1.85,3.07-3.54,0-1.96-1.35-3.52-3.19-3.52"/>
  <rect class="cls-1" x="142.25" y="63.79" width="1.68" height="9.84"/>
  <rect class="cls-1" x="142.54" y="64.09" width="1.09" height="9.24"/>
  <polygon class="cls-1" points="155.53 73.63 149.95 66.66 149.95 73.63 148.27 73.63 148.27 63.8 149.8 63.8 155.37 70.86 155.37 63.8 157.07 63.8 157.07 73.63 155.53 73.63"/>
  <polygon class="cls-1" points="155.67 73.33 149.65 65.82 149.65 73.33 148.56 73.33 148.56 64.1 149.65 64.1 155.67 71.71 155.67 64.1 156.77 64.1 156.77 73.33 155.67 73.33"/>
  <path class="cls-1" d="M166.14,73.86c-3.14,0-5.41-2.16-5.41-5.13s2.33-5.12,5.41-5.12c1.62,0,2.86.54,4.14,1.8l.21.21-1.14,1.2-.22-.2c-.91-.84-1.7-1.33-3.01-1.33-2.12,0-3.72,1.48-3.72,3.45,0,2.26,1.88,3.44,3.74,3.44.36,0,.72-.04,1.07-.11.77-.17,1.67-.62,1.67-1.37v-1h-3.19v-1.68h4.87v2.76c0,1.51-1.36,2.45-2.62,2.83-.58.17-1.16.25-1.79.25"/>
  <path class="cls-1" d="M167.85,73.33c-.56.16-1.13.23-1.71.23-2.83,0-5.12-1.92-5.12-4.83s2.32-4.82,5.12-4.82c1.65,0,2.78.58,3.93,1.72l-.74.78c-.98-.9-1.84-1.41-3.21-1.41-2.18,0-4.02,1.5-4.02,3.75s1.85,3.73,4.04,3.73c.37,0,.75-.04,1.13-.11.8-.17,1.9-.68,1.9-1.66v-1.3h-3.19v-1.09h4.28v2.46c0,1.35-1.25,2.2-2.41,2.55"/>
  <path class="cls-1" d="M183.31,73.86c-2.07,0-3.44-.58-4.9-2.08l-.21-.21,1.2-1.18.21.21c1.2,1.19,2.1,1.57,3.68,1.57,1.11,0,2.99-.33,2.99-1.56,0-.98-1.13-1.26-1.8-1.27l-1.95-.02c-1.19-.01-1.83-.16-2.44-.55-.67-.44-1.09-1.23-1.09-2.08,0-2.12,2.22-3.08,4.28-3.08,1.54,0,2.8.44,4.08,1.42l.24.18-1.04,1.31-.23-.16c-1.09-.77-1.93-1.06-3.09-1.06-.83,0-2.55.34-2.55,1.38,0,.28.16.56.39.69.34.18.57.25,1.74.26h1.37c.82.01,1.46.12,2,.34,1.06.44,1.78,1.52,1.78,2.67,0,2.22-2.35,3.21-4.67,3.21"/>
  <path class="cls-1" d="M183.31,73.56c-1.99,0-3.3-.57-4.68-1.99l.78-.76c1.21,1.2,2.18,1.66,3.89,1.66,1.14,0,3.29-.33,3.29-1.85,0-1.11-1.15-1.56-2.09-1.57l-1.95-.02c-1.16-.01-1.73-.15-2.29-.51-.6-.4-.95-1.11-.95-1.83,0-2.04,2.3-2.78,3.98-2.78,1.51,0,2.71.45,3.9,1.36l-.68.85c-1.06-.75-1.95-1.11-3.26-1.11-.99,0-2.84.4-2.84,1.68,0,.38.21.77.54.95.42.22.7.29,1.88.3h1.37c.64.01,1.3.07,1.89.32.95.4,1.59,1.37,1.59,2.4,0,2.24-2.57,2.92-4.37,2.92"/>
  <path class="cls-1" d="M195.76,73.86c-2.89,0-5.25-2.29-5.25-5.11s2.39-5.17,5.33-5.17,5.24,2.24,5.24,5.11-2.28,5.17-5.31,5.17M195.85,65.28c-2.05,0-3.65,1.53-3.65,3.47s1.57,3.42,3.58,3.42,3.6-1.49,3.6-3.46-1.52-3.44-3.54-3.44"/>
  <path class="cls-1" d="M195.76,73.57c-2.69,0-4.95-2.08-4.95-4.81s2.31-4.87,5.03-4.87,4.94,2.04,4.94,4.81-2.24,4.87-5.02,4.87M195.85,64.99c-2.14,0-3.94,1.58-3.94,3.77s1.79,3.72,3.88,3.72,3.89-1.57,3.89-3.76-1.71-3.73-3.83-3.73"/>
  <polygon class="cls-1" points="204.79 73.63 204.79 63.8 206.47 63.8 206.47 71.95 212.29 71.95 212.29 73.63 204.79 73.63"/>
  <polygon class="cls-1" points="205.09 73.33 205.09 64.1 206.17 64.1 206.17 72.24 211.99 72.24 211.99 73.33 205.09 73.33"/>
  <path class="cls-1" d="M219.38,73.86c-1.34,0-2.38-.32-3.18-.98-1.11-.93-1.19-1.97-1.19-3.23v-5.85h1.68v5.82c0,.98.05,1.37.36,1.74.59.7,1.72.81,2.33.81,1.21,0,2.02-.3,2.41-.88.18-.27.31-.55.31-1.66v-5.82h1.68v5.82c0,.89-.04,1.75-.5,2.49-.97,1.57-3.05,1.75-3.9,1.75"/>
  <path class="cls-1" d="M223.03,71.96c-.74,1.21-2.31,1.61-3.65,1.61-1.07,0-2.14-.21-2.99-.91-1-.84-1.09-1.75-1.09-3v-5.55h1.09v5.52c0,.99.05,1.47.43,1.93.61.72,1.67.92,2.56.92.94,0,2.1-.17,2.66-1.01.22-.33.36-.67.36-1.83v-5.52h1.09v5.52c0,.79-.03,1.64-.46,2.34"/>
  <polygon class="cls-1" points="230.42 73.63 230.42 65.48 227.05 65.48 227.05 63.8 235.49 63.8 235.49 65.48 232.1 65.48 232.1 73.63 230.42 73.63"/>
  <polygon class="cls-1" points="231.81 65.19 231.81 73.33 230.72 73.33 230.72 65.19 227.34 65.19 227.34 64.1 235.19 64.1 235.19 65.19 231.81 65.19"/>
  <rect class="cls-1" x="238.77" y="63.79" width="1.68" height="9.84"/>
  <rect class="cls-1" x="239.07" y="64.09" width="1.09" height="9.24"/>
  <path class="cls-1" d="M249.34,73.86c-2.9,0-5.25-2.29-5.25-5.11s2.39-5.17,5.33-5.17,5.24,2.24,5.24,5.11-2.28,5.17-5.31,5.17M249.43,65.28c-2.05,0-3.65,1.53-3.65,3.47s1.57,3.42,3.58,3.42,3.6-1.49,3.6-3.46-1.52-3.44-3.53-3.44"/>
  <path class="cls-1" d="M249.34,73.57c-2.69,0-4.95-2.08-4.95-4.81s2.31-4.87,5.03-4.87,4.94,2.04,4.94,4.81-2.24,4.87-5.02,4.87M249.43,64.99c-2.14,0-3.94,1.58-3.94,3.77s1.79,3.72,3.88,3.72,3.89-1.57,3.89-3.76-1.71-3.73-3.83-3.73"/>
  <polygon class="cls-1" points="265.65 73.63 260.07 66.66 260.07 73.63 258.39 73.63 258.39 63.8 259.92 63.8 265.5 70.86 265.5 63.8 267.19 63.8 267.19 73.63 265.65 73.63"/>
  <polygon class="cls-1" points="265.8 73.33 259.78 65.82 259.78 73.33 258.69 73.33 258.69 64.1 259.78 64.1 265.8 71.71 265.8 64.1 266.9 64.1 266.9 73.33 265.8 73.33"/>
  <path class="cls-1" d="M275.17,73.86c-2.07,0-3.44-.58-4.89-2.08l-.21-.21,1.2-1.18.21.21c1.2,1.19,2.1,1.57,3.69,1.57,1.11,0,2.99-.33,2.99-1.56,0-.98-1.13-1.26-1.79-1.27l-1.95-.02c-1.19-.01-1.83-.16-2.44-.55-.67-.44-1.09-1.23-1.09-2.08,0-2.12,2.22-3.08,4.28-3.08,1.54,0,2.8.44,4.08,1.42l.24.18-1.04,1.31-.23-.16c-1.09-.77-1.93-1.06-3.09-1.06-.83,0-2.55.34-2.55,1.38,0,.28.16.56.39.69.34.18.57.25,1.74.26h1.37c.82.01,1.46.12,2,.34,1.06.44,1.78,1.52,1.78,2.67,0,2.22-2.35,3.21-4.67,3.21"/>
  <path class="cls-1" d="M275.17,73.56c-1.99,0-3.3-.57-4.68-1.99l.78-.76c1.21,1.2,2.17,1.66,3.89,1.66,1.14,0,3.29-.33,3.29-1.85,0-1.11-1.15-1.56-2.09-1.57l-1.95-.02c-1.16-.01-1.73-.15-2.29-.51-.61-.4-.95-1.11-.95-1.83,0-2.04,2.3-2.78,3.98-2.78,1.51,0,2.71.45,3.9,1.36l-.68.85c-1.06-.75-1.95-1.11-3.26-1.11-.99,0-2.84.4-2.84,1.68,0,.38.21.77.54.95.42.22.7.29,1.88.3h1.37c.64.01,1.3.07,1.89.32.95.4,1.59,1.37,1.59,2.4,0,2.24-2.57,2.92-4.37,2.92"/>
  <path class="cls-1" d="M99.38,12.14h.68l10.17,27.88c1.31,3.8,2.25,6.37,2.81,7.69.57,1.23,1.22,2.16,1.94,2.78s1.33.98,1.85,1.07c.51.1,1.22.15,2.12.15l.31.27.18,1.19-.12.26c-.08,0-1-.06-2.77-.18-1.76-.12-2.87-.18-3.32-.18h-2.02c-.33,0-.97.02-1.92.06-.96.04-1.99.1-3.1.18-1.11.08-1.74.12-1.91.12l-.12-.26.18-1.19.25-.27c1.31,0,2.27-.16,2.86-.48.59-.32.89-1,.89-2.04,0-.36-.05-.77-.15-1.23-.1-.46-.28-1.05-.54-1.76-.26-.71-.5-1.38-.73-1.99l-.93-2.54-1.03-2.83-1.07-2.94h-13.73l-1.05,2.93-1.05,2.75-.92,2.57c-.25.61-.48,1.27-.71,1.99-.23.71-.39,1.3-.49,1.77-.1.47-.16.89-.16,1.25,0,1.06.3,1.75.89,2.08.59.33,1.55.49,2.86.49l.31.27.18,1.19-.12.26c-.25,0-.87-.04-1.88-.12-1.01-.08-1.96-.14-2.86-.18-.9-.04-1.52-.06-1.85-.06h-1.17c-.45,0-1.56.06-3.32.18-1.76.12-2.69.18-2.77.18l-.06-.26.12-1.19.31-.27c.66,0,1.18-.03,1.57-.09.39-.06.86-.21,1.42-.43.55-.23,1.07-.63,1.54-1.23.47-.59.93-1.38,1.39-2.36.45-.9,3.12-7.59,8-20.06l3.14-7.91,2.28-5.64,3.63-1.84ZM97.14,17.42l-5.91,15.77h11.66l-5.75-15.77Z"/>
  <path class="cls-1" d="M136.61,53.18l-.12.25c-.21,0-.85-.04-1.94-.12-1.09-.08-2.1-.14-3.04-.18-.95-.04-1.58-.06-1.91-.06h-1.17c-.33,0-.97.02-1.91.06-.94.04-1.96.1-3.05.18-1.09.08-1.73.12-1.94.12l-.12-.25.18-1.11.31-.25c1.64,0,2.73-.18,3.26-.55.82-.57,1.33-1.76,1.54-3.57.08-1.64.12-4.18.12-7.63v-16c0-1.93-.06-3.9-.18-5.91-.12-1.6-.62-2.77-1.48-3.51-.7-.41-1.78-.62-3.26-.62l-.31-.25-.18-1.11.12-.25c.08,0,.87.06,2.37.17,1.5.12,2.6.17,3.29.17h2.22c.66,0,1.75,0,3.29-.03,1.54-.02,2.49-.03,2.86-.03,5.25,0,9.1.9,11.54,2.68,2.44,1.79,3.66,4.32,3.66,7.59s-1.03,5.86-3.09,7.75c-2.06,1.9-4.52,3.18-7.39,3.85,2.83,3.94,5.63,7.52,8.38,10.76,1.89,2.21,3.51,3.77,4.86,4.67,1.35.9,3.32,1.49,5.91,1.78l.37.25.12,1.11-.12.25c-.66,0-1.68.04-3.08.12-1.4.08-2.3.12-2.71.12-1.97,0-3.57-.45-4.8-1.35-1.23-.9-2.94-2.68-5.11-5.34-.45-.45-3.25-4.43-8.42-11.95h-4.49c0,6.73.06,10.95.19,12.68.08,1.56.57,2.73,1.48,3.51.7.41,1.8.61,3.32.61l.25.25.18,1.11ZM133.54,32.32h3.26c6.4,0,9.6-2.98,9.6-8.93,0-2.52-.85-4.48-2.55-5.88-1.7-1.41-4.03-2.11-6.98-2.11h-5.35c-.21,3.98-.31,6.79-.31,8.43v6.17c0,1.09.12,1.75.37,1.98s.9.35,1.97.35"/>
  <path class="cls-1" d="M211.32,53.18l-.06.25c-.21,0-.85-.04-1.94-.12-1.09-.08-2.1-.14-3.05-.18-.94-.04-1.58-.06-1.91-.06h-1.17c-.33,0-.96.02-1.9.06-.94.04-1.96.1-3.04.18-1.09.08-1.73.12-1.94.12l-.18-.25.18-1.11.25-.25c1.68,0,2.77-.2,3.26-.62.82-.82,1.23-1.99,1.23-3.51,0-1.85-.1-4.39-.31-7.63-.83-11.4-1.38-18.38-1.67-20.92l-13.42,33.11h-2.59l-12.49-32.99c-.04.49-.08,1.04-.12,1.66-.05.61-.12,1.55-.22,2.82l-.29,3.8-.86,11.29c-.29,3.69-.43,6.65-.43,8.86,0,1.56.43,2.73,1.29,3.51.45.41,1.37.62,2.77.62l.24.25.19,1.11-.12.25c-.12,0-1.03-.06-2.7-.18-1.68-.12-2.75-.18-3.19-.18h-1.16c-.33,0-.96.02-1.9.06-.94.04-1.95.1-3.01.18-1.07.08-1.7.12-1.91.12l-.12-.25.18-1.11.37-.25c1.6,0,2.69-.2,3.26-.62.98-.82,1.58-1.99,1.78-3.51.17-1.44.37-4,.61-7.67l.99-12.45c.33-4.35.49-7.49.49-9.41,0-1.6-.51-2.77-1.54-3.51-.53-.41-1.62-.62-3.26-.62l-.31-.25-.19-1.11.12-.25c.21,0,.85.04,1.94.12,1.09.08,2.1.14,3.04.18.94.04,1.58.06,1.9.06h2.15c.66,0,1.48-.08,2.46-.25l.31.18c.04.41.15.95.34,1.6.18.66.45,1.44.79,2.34.34.9.67,1.77.99,2.62l1.13,2.99c.48,1.22.85,2.2,1.11,2.93l4.29,11.33c.73,2.19,1.82,5.07,3.27,8.63.66-.98,2.73-5.9,6.22-14.74,3.49-8.84,5.44-14.72,5.85-17.64l.31-.25c.9.17,1.6.25,2.09.25h2.22c.33,0,.96-.02,1.91-.06.94-.04,1.96-.1,3.05-.18,1.09-.08,1.73-.12,1.94-.12l.12.25-.18,1.11-.31.25c-1.68,0-2.77.21-3.26.62-1.03.82-1.54,1.99-1.54,3.51,0,1.72.17,4.84.49,9.35l.74,11.32c.33,4.31.62,7.26.86,8.86.2,1.56.78,2.73,1.72,3.51.53.41,1.64.62,3.32.62l.31.25.18,1.11Z"/>
  <path class="cls-1" d="M216.33,18.17c3.59-4.02,8.47-6.03,14.64-6.03s11.06,2,14.67,6c3.61,4,5.42,8.89,5.42,14.68s-1.82,10.72-5.47,14.8c-3.65,4.08-8.67,6.12-15.05,6.12s-11.03-1.96-14.46-5.88c-3.43-3.92-5.14-8.79-5.14-14.62s1.8-11.06,5.39-15.08M230.9,50.47c4.73,0,8.49-1.68,11.28-5.05,2.79-3.36,4.19-7.55,4.19-12.55s-1.43-9.27-4.29-12.56c-2.86-3.28-6.69-4.92-11.5-4.92s-8.41,1.61-11.04,4.83c-2.63,3.22-3.95,7.42-3.95,12.58s1.41,9.71,4.22,12.89c2.82,3.18,6.51,4.77,11.07,4.77"/>
  <path class="cls-1" d="M267.23,53.18l-.12.25c-.21,0-.85-.04-1.94-.12-1.09-.08-2.1-.14-3.04-.18-.95-.04-1.58-.06-1.91-.06h-1.17c-.33,0-.97.02-1.91.06-.94.04-1.96.1-3.05.18-1.09.08-1.73.12-1.94.12l-.12-.25.18-1.11.31-.25c1.64,0,2.73-.18,3.26-.55.82-.57,1.33-1.76,1.54-3.57.08-1.64.12-4.18.12-7.63v-16c0-1.93-.06-3.9-.18-5.91-.12-1.6-.62-2.77-1.48-3.51-.7-.41-1.78-.62-3.26-.62l-.31-.25-.18-1.11.12-.25c.08,0,.87.06,2.37.17,1.5.12,2.59.17,3.29.17h2.22c.65,0,1.75,0,3.29-.03,1.54-.02,2.49-.03,2.86-.03,5.25,0,9.1.9,11.54,2.68,2.44,1.79,3.66,4.32,3.66,7.59s-1.03,5.86-3.09,7.75c-2.06,1.9-4.52,3.18-7.39,3.85,2.83,3.94,5.63,7.52,8.38,10.76,1.89,2.21,3.51,3.77,4.86,4.67,1.35.9,3.32,1.49,5.91,1.78l.37.25.12,1.11-.12.25c-.66,0-1.68.04-3.08.12-1.39.08-2.3.12-2.71.12-1.97,0-3.57-.45-4.8-1.35-1.23-.9-2.94-2.68-5.11-5.34-.45-.45-3.26-4.43-8.42-11.95h-4.49c0,6.73.06,10.95.18,12.68.08,1.56.57,2.73,1.48,3.51.7.41,1.81.61,3.33.61l.25.25.18,1.11ZM264.15,32.32h3.26c6.4,0,9.6-2.98,9.6-8.93,0-2.52-.85-4.48-2.55-5.88-1.7-1.41-4.03-2.11-6.99-2.11h-5.35c-.21,3.98-.31,6.79-.31,8.43v6.17c0,1.09.12,1.75.37,1.98.25.23.9.35,1.97.35"/>
  <path class="cls-1" d="M34.01,0C15.3,12.14,0,33.25,0,54.62v24.28l68.12.03.08-24.27c0-21.43-16.46-42.58-34.19-54.66M34.39,13.66c7.6,5.38,14.45,13.98,18.52,23.48H15.48c4.23-9.46,11.34-17.82,18.91-23.48M56.77,67.39H11.5v-12.77c0-3.19.43-6.37,1.2-9.48h42.88c.76,3.16,1.19,6.35,1.19,9.48v12.77Z"/>
</svg>